<svg xmlns="http://www.w3.org/2000/svg" width="32" height="28" viewBox="0 0 32 28">
  <defs>
    <style>
      .cls-1 {
        fill: #00131f;
      }

      .cls-2 {
        fill: #e8f1f5;
      }
    </style>
  </defs>
  <g id="Github_button" data-name="Github button" transform="translate(-7 -45)">
    <rect id="Rectangle_5" data-name="Rectangle 5" class="cls-1" width="32" height="28" rx="14" transform="translate(7 45)"/>
    <path id="github" class="cls-2" d="M11.5.5A11.4,11.4,0,0,0,0,11.8,11.32,11.32,0,0,0,7.863,22.522c.575.106.786-.243.786-.543,0-.268-.01-.979-.014-1.921-3.2.681-3.874-1.516-3.874-1.516a3.012,3.012,0,0,0-1.279-1.653c-1.042-.7.081-.686.081-.686a2.406,2.406,0,0,1,1.761,1.164,2.476,2.476,0,0,0,3.349.94A2.393,2.393,0,0,1,9.4,16.8c-2.554-.283-5.238-1.254-5.238-5.584A4.318,4.318,0,0,1,5.347,8.179a3.954,3.954,0,0,1,.1-2.991s.963-.3,3.162,1.159a11.026,11.026,0,0,1,5.75,0c2.185-1.461,3.148-1.159,3.148-1.159a4.063,4.063,0,0,1,.115,2.991A4.335,4.335,0,0,1,18.8,11.211c0,4.341-2.688,5.3-5.247,5.575a2.681,2.681,0,0,1,.776,2.091c0,1.512-.014,2.727-.014,3.094,0,.3.2.65.791.537A11.285,11.285,0,0,0,23,11.8,11.4,11.4,0,0,0,11.5.5Z" transform="translate(12 47.67)"/>
  </g>
</svg>
