<svg xmlns="http://www.w3.org/2000/svg" width="32" height="28" viewBox="0 0 32 28">
  <defs>
    <style>
      .cls-1 {
        fill: #00131f;
      }

      .cls-2 {
        fill: #fafafa;
      }
    </style>
  </defs>
  <g id="Refresh_button" data-name="Refresh button" transform="translate(-7 -8)">
    <rect id="Rectangle_2" data-name="Rectangle 2" class="cls-1" width="32" height="28" rx="14" transform="translate(7 8)"/>
    <g id="refresh" transform="translate(15.728 13.557)">
      <g id="Group_1" data-name="Group 1">
        <path id="Path_2" data-name="Path 2" class="cls-2" d="M24.98,7.185a.607.607,0,1,0-1.2.191l0,.011a6.685,6.685,0,1,1-1.66-3.395l-2.69.9a.607.607,0,0,0-.384.768h0a.607.607,0,0,0,.768.384h0L23.46,4.827a.607.607,0,0,0,.415-.576V.607a.607.607,0,0,0-1.214,0V2.825a7.814,7.814,0,1,0,2.32,4.36Z" transform="translate(-9.461)"/>
      </g>
    </g>
  </g>
</svg>
